<svg width="50" height="50" viewBox="0 0 50 50" fill="none" xmlns="http://www.w3.org/2000/svg">
<g id = "html">
<path fill-rule="evenodd" clip-rule="evenodd" d="M18.3125 42.0645L27.2623 6.6875L31.4375 7.87241L22.4878 43.3125L18.3125 42.0645Z" fill="#7572D5"/>
<path fill-rule="evenodd" clip-rule="evenodd" d="M13.5025 12.6875L16.5625 15.9278L7.99501 25.0001L16.5625 34.0721L13.5025 37.3125L1.875 25.0001L13.5025 12.6875Z" fill="#7572D5"/>
<path fill-rule="evenodd" clip-rule="evenodd" d="M36.4976 12.6875L33.4375 15.9278L42.0051 25.0001L33.4375 34.0721L36.4976 37.3125L48.125 25.0001L36.4976 12.6875Z" fill="#7572D5"/>
</g>
<g id = "css">
<path d="M38.0508 10.8437L12.946 10.8377L13.3515 15.7547L32.6381 15.7577L32.1519 20.8502H19.5035L19.9608 25.6742H31.7358L31.0392 32.2806L25.4969 33.7886L19.8663 32.2701L19.508 28.3134H14.5359L15.0877 35.5411L25.4969 38.7341L35.7309 35.8652L38.0493 10.8452L38.0508 10.8437ZM5.49844 2.56873H45.4984L41.86 42.9999L25.4542 47.5687L9.13993 42.9968L5.49844 2.56873Z" fill="#7572D5"/>
</g>
<g id = "react">
<path d="M47.8125 25C47.8125 22.0833 44.6875 19.375 39.4792 17.5L38.5417 17.1875V16.7708C39.6875 11.0416 38.8542 6.7708 36.25 5.2083C33.6458 3.6458 29.7917 5.10414 25.625 8.74997L25 9.37497L24.7917 9.16664H24.5833C20.3125 5.2083 16.1458 3.85414 13.5417 5.31247C10.9375 6.7708 10.2083 10.8333 11.25 16.1458C11.3596 16.4838 11.4295 16.8333 11.4583 17.1875L10.3125 17.6041C5.20833 19.375 2.1875 22.0833 2.1875 25C2.1875 27.9166 5.52083 30.8333 10.7292 32.7083L11.4583 32.9166C11.3296 33.2854 11.2593 33.672 11.25 34.0625C10.2083 39.2708 11.1458 43.2291 13.5417 44.6875C15.9375 46.1458 20.3125 44.7916 24.4792 41.1458L25.1042 40.625L25.9375 41.4583C28.8542 43.9583 31.7708 45.3125 34.0625 45.3125C34.8708 45.3309 35.6671 45.1137 36.3542 44.6875C38.9583 43.2291 39.8958 38.9583 38.75 33.5416V33.3333C38.705 33.1619 38.6702 32.988 38.6458 32.8125H38.9583C44.4792 30.8333 47.8125 28.0208 47.8125 25ZM44.7917 25C44.7917 26.25 42.5 28.4375 38.0208 29.8958H37.8125C37.2664 28.2202 36.6051 26.5843 35.8333 25C36.5625 23.3333 37.1875 21.6666 37.7083 20.1041L38.5417 20.3125C42.7083 21.7708 44.7917 23.75 44.7917 25ZM27.9167 39.1666L27.0833 38.5416C28.2761 37.2201 29.3891 35.8287 30.4167 34.375L35.7292 33.5416C35.8333 33.75 35.8333 33.9583 35.9375 34.0625C36.3087 35.9492 36.379 37.8829 36.1458 39.7916C35.9995 40.7045 35.5608 41.5452 34.8958 42.1875C33.8542 42.8125 31.0417 41.9791 27.9167 39.1666ZM26.5625 34.5833L25.1042 36.4583L23.4375 34.5833H26.5625ZM12.2917 20C12.8152 21.7174 13.4771 23.3895 14.2708 25C13.4765 26.646 12.8146 28.3528 12.2917 30.1041L11.6667 29.8958C9.84256 29.3201 8.1454 28.4008 6.66667 27.1875C6.28377 26.9455 5.95605 26.6257 5.7048 26.2488C5.45356 25.872 5.2844 25.4465 5.20833 25C5.20833 23.75 7.29167 21.7708 11.25 20.4166L12.2917 20ZM23.4375 15.4166L25 13.6458L26.5625 15.4166H23.4375ZM34.8958 7.81247C36.0417 8.43747 36.6667 11.5625 35.7292 16.1458C35.734 16.2022 35.7272 16.2591 35.7093 16.3128C35.6914 16.3665 35.6627 16.416 35.625 16.4583L30.4167 15.625C29.3891 14.1712 28.2761 12.7799 27.0833 11.4583L27.7083 10.9375C31.0417 8.0208 33.75 7.18747 34.8958 7.81247ZM17.5 18.8541L16.6667 20.2083L15.9375 21.5625C15.625 20.8333 15.4167 20.1041 15.1042 19.2708L17.5 18.8541ZM15.1042 30.7291C15.4167 30 15.625 29.2708 15.9375 28.4375L16.6667 29.7916L17.5 31.1458L15.1042 30.7291ZM32.5 25C31.9699 26.142 31.3788 27.2548 30.7292 28.3333C30.1042 29.4791 29.375 30.5208 28.75 31.5625H21.25C20.5208 30.4166 19.7917 29.375 19.2708 28.3333C18.6161 27.2577 18.0248 26.1447 17.5 25C18.0054 23.8458 18.5974 22.7315 19.2708 21.6666C19.8693 20.5874 20.5301 19.544 21.25 18.5416C23.7457 18.3334 26.2543 18.3334 28.75 18.5416C29.4792 19.5833 30.1042 20.625 30.7292 21.6666C31.4026 22.7315 31.9946 23.8458 32.5 25ZM33.3333 20.2083L32.5 18.8541L34.8958 19.375C34.6639 20.1208 34.3856 20.8514 34.0625 21.5625L33.3333 20.2083ZM32.5 31.1458L33.3333 29.7916L34.0625 28.3333L35 30.7291L32.5 31.1458ZM22.8125 11.3541H22.9167L19.5833 15.5208L14.375 16.3541C14.2708 16.0416 14.2708 15.8333 14.1667 15.5208C13.3333 11.25 13.9583 8.3333 15 7.81247C15.2766 7.63082 15.61 7.55672 15.9375 7.60414C17.3958 7.60414 19.8958 8.6458 22.7083 11.1458L22.8125 11.3541ZM14.1667 34.5833C14.1857 34.2617 14.256 33.9452 14.375 33.6458L19.6875 34.375C20.689 35.8481 21.8034 37.2412 23.0208 38.5416L22.8125 38.75L22.6042 38.9583C21.184 40.2738 19.5211 41.2999 17.7083 41.9791C17.3107 42.1874 16.875 42.3133 16.4275 42.3491C15.98 42.3849 15.5299 42.3299 15.1042 42.1875C13.9583 41.5625 13.3333 38.75 14.1667 34.5833Z" fill="#7572D5"/>
<path d="M25 20.4166C24.0894 20.3959 23.1932 20.647 22.4259 21.1379C21.6586 21.6287 21.0549 22.3371 20.692 23.1726C20.3291 24.008 20.2233 24.9327 20.3882 25.8285C20.5532 26.7243 20.9812 27.5507 21.6179 28.2022C22.2545 28.8536 23.0709 29.3006 23.9627 29.4861C24.8545 29.6715 25.7813 29.587 26.6249 29.2434C27.4685 28.8998 28.1905 28.3126 28.6989 27.5568C29.2073 26.801 29.4789 25.9108 29.4792 24.9999C29.4795 23.8022 29.0109 22.6519 28.1738 21.7953C27.3366 20.9387 26.1974 20.4438 25 20.4166Z" fill="#7572D5"/>
</g>
<g id = "typeScript">
<path d="M5 25V45H45V5H5V25ZM37.235 23.4067C38.2517 23.66 39.025 24.1117 39.7367 24.8483C40.105 25.2417 40.6517 25.9583 40.695 26.1317C40.7083 26.1817 38.9683 27.3483 37.915 28.0033C37.8767 28.0283 37.7233 27.8633 37.5533 27.61C37.0367 26.86 36.4983 26.5367 35.6733 26.48C34.46 26.3967 33.68 27.0317 33.6867 28.0917C33.6756 28.3523 33.7343 28.6112 33.8567 28.8417C34.1233 29.3933 34.62 29.725 36.1733 30.3967C39.0383 31.63 40.2633 32.4417 41.025 33.5967C41.875 34.885 42.0667 36.9433 41.4883 38.4733C40.855 40.1367 39.28 41.2667 37.0633 41.64C36.3783 41.7617 34.7533 41.7433 34.0167 41.61C32.41 41.3233 30.8867 40.53 29.9467 39.4883C29.5783 39.0833 28.86 38.0217 28.905 37.9467C28.9233 37.92 29.0883 37.8183 29.2717 37.7117C29.4517 37.61 30.1233 37.2217 30.7583 36.8533L31.9083 36.1867L32.15 36.5433C32.4867 37.0567 33.2217 37.7617 33.6667 37.9967C34.9433 38.67 36.695 38.575 37.5583 37.8C37.7319 37.6538 37.8694 37.4693 37.9599 37.2612C38.0504 37.053 38.0915 36.8267 38.08 36.6C38.08 36.1367 38.0217 35.9333 37.78 35.5833C37.47 35.14 36.835 34.7667 35.0317 33.9833C32.9683 33.095 32.08 32.5433 31.2667 31.6667C30.759 31.0881 30.3841 30.4055 30.1683 29.6667C30.0167 29.1017 29.9783 27.685 30.0983 27.115C30.5233 25.12 32.0283 23.7317 34.2 23.3183C34.905 23.185 36.5433 23.235 37.235 23.4067ZM27.845 25.0767L27.8583 26.715H22.65V41.5083H18.9667V26.715H13.7633V25.1083C13.7633 24.2183 13.7817 23.475 13.8067 23.4583C13.8267 23.4317 16.995 23.4183 20.835 23.425L27.8267 23.445L27.845 25.0767Z" fill="#7572D5"/>
</g>
<g  id = "styledComponents">
<path d="M37.2591 6.25L36.9888 7.64963C36.5708 10.3021 36.7221 11.061 37.8682 12.0454L38.9747 12.9546L37.8286 18.0305C37.1438 21.0588 36.3041 23.5968 35.7707 24.4308C35.313 25.1503 34.7796 26.2099 34.6642 26.7791C34.4732 27.4592 33.8245 28.1429 32.8334 28.7478C31.9576 29.2418 30.2385 30.5663 29.0203 31.6294C28.0472 32.4993 27.3769 33.0326 27.0129 33.2617L25.8235 34.196C25.4415 34.8046 25.2253 35.295 25.1424 35.6672C25.0595 36.0503 25.1063 36.3044 25.2289 36.4905C25.3478 36.6695 25.5532 36.7948 25.8343 36.8736C26.1671 36.951 26.5097 36.9788 26.8507 36.9559C27.6222 36.9035 28.3858 36.7691 29.1284 36.555C29.3807 36.487 29.5789 36.4225 29.7519 36.3653C30.0186 36.0395 30.6349 35.4238 31.7269 34.3535C34.6246 31.5149 35.731 29.9613 34.5885 30.3802C34.1669 30.5305 34.3579 30.1511 35.0823 29.3922C36.6104 27.9138 37.4862 25.6801 39.317 18.6748C40.7659 13.1443 40.7659 13.0656 41.8327 13.0656C42.3336 13.0656 43.75 13.1515 43.75 13.1515V6.25H40.4992H37.2591ZM24.4216 18.0806C23.3692 18.0735 21.1058 19.6664 14.3303 25.1611C14.0383 25.8519 14.0131 26.328 14.1464 26.6359C14.2329 26.8471 14.3915 26.9938 14.6114 27.1012C14.8276 27.2086 15.1087 27.2731 15.4187 27.2981C16.035 27.3518 16.763 27.2552 17.3504 27.1406L17.7469 27.0511C17.8826 26.8704 18.0608 26.7254 18.2659 26.6287C18.6839 26.3996 20.4391 24.8103 22.1943 23.1064C25.2829 19.9993 26.0073 18.5961 24.7495 18.1415C24.6463 18.1007 24.5326 18.08 24.4216 18.0806ZM32.336 20.2391C31.4098 20.2642 29.7411 21.3309 26.8831 23.5968C25.4487 24.753 24.5405 25.3759 24.0539 25.5047L22.1654 26.9867C21.4554 28.2753 21.3509 29.0736 21.5383 29.5139C21.5852 29.6225 21.6533 29.7208 21.7387 29.8031C21.8241 29.8855 21.925 29.9502 22.0357 29.9936C22.311 30.1015 22.6046 30.1562 22.9006 30.1546C23.608 30.1471 24.3112 30.0448 24.991 29.8504C25.3453 29.7559 25.6952 29.6461 26.0398 29.521L26.1443 29.4781L26.3353 29.3779C26.6957 28.9161 27.5246 28.0462 28.5626 27.044C31.8423 23.9011 33.5181 21.6674 33.1758 20.8333C33.0208 20.4288 32.7541 20.2248 32.336 20.2391ZM23.5998 24.1051C23.3331 24.1337 22.7349 24.5919 21.6573 25.5298C20.1003 26.8972 18.4028 27.6847 17.8154 27.3339C17.6788 27.3645 17.5419 27.3932 17.4045 27.4198C16.8062 27.5379 16.0602 27.6346 15.3934 27.5809C15.0793 27.562 14.7714 27.4855 14.4852 27.3554C14.2153 27.2328 13.9999 27.0164 13.8797 26.7468C13.7464 26.4247 13.7464 26.0238 13.8978 25.5119L11.5551 27.4234L6.2536 31.7798V38.8424L23.6251 25.2506C23.6217 25.1018 23.6411 24.9533 23.6827 24.8103C23.8161 24.3306 23.8089 24.0872 23.5998 24.1087V24.1051ZM31.0746 26.3925C30.8115 26.3925 30.3718 26.7612 29.669 27.5021C28.714 28.5152 27.2111 29.496 26.4146 29.6964L26.292 29.7609C26.1613 29.8145 26.0291 29.8646 25.8956 29.9112C25.6794 29.9828 25.3982 30.0687 25.0739 30.1546C24.4252 30.33 23.6179 30.4911 22.897 30.4732C22.5572 30.4728 22.2207 30.4072 21.9059 30.2799C21.6093 30.1585 21.3716 29.9275 21.2428 29.6356C21.0338 29.138 21.1167 28.44 21.5744 27.4485L6.25 39.4366V43.75H12.9823L27.2615 32.6103C27.6327 32.2022 28.1914 31.6438 28.9446 30.9457C30.9629 29.0879 31.4206 28.4472 31.4206 27.4986C31.4206 26.7612 31.3377 26.3889 31.0746 26.3889V26.3925ZM34.4732 33.3727L33.2514 34.5826C32.5667 35.2269 31.3449 36.0216 30.5088 36.3617L30.343 36.4333L30.3322 36.4512L30.2961 36.487C30.2637 36.512 30.2493 36.5156 30.2241 36.5263C29.8903 36.6518 29.5512 36.7629 29.2077 36.8592C28.4441 37.08 27.6586 37.218 26.8651 37.2709C26.4899 37.2948 26.1132 37.2622 25.7478 37.1743C25.4307 37.1049 25.1508 36.9213 24.9622 36.6588C24.7892 36.3939 24.7387 36.0395 24.836 35.6028C24.9134 35.2919 25.0284 34.9914 25.1784 34.7079L13.6563 43.75H28.9807L30.8115 41.6667C33.3271 38.7529 34.4732 36.6695 34.4732 34.8869V33.3727Z" fill="#7572D5"/>
</g>
<g  id = "git"> 
<path d="M 25 2 C 12.311335 2 2 12.311335 2 25 C 2 37.688665 12.311335 48 25 48 C 37.688665 48 48 37.688665 48 25 C 48 12.311335 37.688665 2 25 2 z M 25 4 C 36.607335 4 46 13.392665 46 25 C 46 25.071371 45.994849 25.141688 45.994141 25.212891 C 45.354527 25.153853 44.615508 25.097776 43.675781 25.064453 C 42.347063 25.017336 40.672259 25.030987 38.773438 25.125 C 38.843852 24.634651 38.893205 24.137377 38.894531 23.626953 C 38.991361 21.754332 38.362521 20.002464 37.339844 18.455078 C 37.586913 17.601352 37.876747 16.515218 37.949219 15.283203 C 38.031819 13.878925 37.910599 12.321765 36.783203 11.269531 L 36.494141 11 L 36.099609 11 C 33.416539 11 31.580023 12.12321 30.457031 13.013672 C 28.835529 12.386022 27.01222 12 25 12 C 22.976367 12 21.135525 12.391416 19.447266 13.017578 C 18.324911 12.126691 16.486785 11 13.800781 11 L 13.408203 11 L 13.119141 11.267578 C 12.020956 12.287321 11.919778 13.801759 11.988281 15.199219 C 12.048691 16.431506 12.321732 17.552142 12.564453 18.447266 C 11.524489 20.02486 10.900391 21.822018 10.900391 23.599609 C 10.900391 24.111237 10.947969 24.610071 11.017578 25.101562 C 9.2118173 25.017808 7.6020996 25.001668 6.3242188 25.046875 C 5.3845143 25.080118 4.6454422 25.135713 4.0058594 25.195312 C 4.0052628 25.129972 4 25.065482 4 25 C 4 13.392665 13.392665 4 25 4 z M 14.396484 13.130859 C 16.414067 13.322043 17.931995 14.222972 18.634766 14.847656 L 19.103516 15.261719 L 19.681641 15.025391 C 21.263092 14.374205 23.026984 14 25 14 C 26.973016 14 28.737393 14.376076 30.199219 15.015625 L 30.785156 15.273438 L 31.263672 14.847656 C 31.966683 14.222758 33.487184 13.321554 35.505859 13.130859 C 35.774256 13.575841 36.007486 14.208668 35.951172 15.166016 C 35.883772 16.311737 35.577304 17.559658 35.345703 18.300781 L 35.195312 18.783203 L 35.494141 19.191406 C 36.483616 20.540691 36.988121 22.000937 36.902344 23.544922 L 36.900391 23.572266 L 36.900391 23.599609 C 36.900391 26.095064 36.00178 28.092339 34.087891 29.572266 C 32.174048 31.052199 29.152663 32 24.900391 32 C 20.648118 32 17.624827 31.052192 15.710938 29.572266 C 13.797047 28.092339 12.900391 26.095064 12.900391 23.599609 C 12.900391 22.134903 13.429308 20.523599 14.40625 19.191406 L 14.699219 18.792969 L 14.558594 18.318359 C 14.326866 17.530484 14.042825 16.254103 13.986328 15.101562 C 13.939338 14.14294 14.166221 13.537027 14.396484 13.130859 z M 8.8847656 26.021484 C 9.5914575 26.03051 10.40146 26.068656 11.212891 26.109375 C 11.290419 26.421172 11.378822 26.727898 11.486328 27.027344 C 8.178972 27.097092 5.7047309 27.429674 4.1796875 27.714844 C 4.1152068 27.214494 4.0638483 26.710021 4.0351562 26.199219 C 5.1622058 26.092262 6.7509972 25.994233 8.8847656 26.021484 z M 41.115234 26.037109 C 43.247527 26.010033 44.835728 26.108156 45.962891 26.214844 C 45.934234 26.718328 45.883749 27.215664 45.820312 27.708984 C 44.24077 27.41921 41.699674 27.086688 38.306641 27.033203 C 38.411945 26.739677 38.499627 26.438219 38.576172 26.132812 C 39.471291 26.084833 40.344564 26.046896 41.115234 26.037109 z M 11.912109 28.019531 C 12.508849 29.215327 13.361516 30.283019 14.488281 31.154297 C 16.028825 32.345531 18.031623 33.177838 20.476562 33.623047 C 20.156699 33.951698 19.86578 34.312595 19.607422 34.693359 L 19.546875 34.640625 C 19.552375 34.634325 19.04975 34.885878 18.298828 34.953125 C 17.547906 35.020374 16.621615 35 15.800781 35 C 14.575781 35 14.03621 34.42121 13.173828 33.367188 C 12.696283 32.72356 12.114101 32.202331 11.548828 31.806641 C 10.970021 31.401475 10.476259 31.115509 9.8652344 31.013672 L 9.7832031 31 L 9.6992188 31 C 9.2325521 31 8.7809835 31.03379 8.359375 31.515625 C 8.1485707 31.756544 8.003277 32.202561 8.0976562 32.580078 C 8.1920352 32.957595 8.4308563 33.189581 8.6445312 33.332031 C 10.011254 34.24318 10.252795 36.046511 11.109375 37.650391 C 11.909298 39.244315 13.635662 40 15.400391 40 L 18 40 L 18 44.802734 C 10.967811 42.320535 5.6646795 36.204613 4.3320312 28.703125 C 5.8629338 28.414776 8.4265387 28.068108 11.912109 28.019531 z M 37.882812 28.027344 C 41.445538 28.05784 44.08105 28.404061 45.669922 28.697266 C 44.339047 36.201504 39.034072 42.31987 32 44.802734 L 32 39.599609 C 32 38.015041 31.479642 36.267712 30.574219 34.810547 C 30.299322 34.368135 29.975945 33.949736 29.615234 33.574219 C 31.930453 33.11684 33.832364 32.298821 35.3125 31.154297 C 36.436824 30.284907 37.287588 29.220424 37.882812 28.027344 z M 23.699219 34.099609 L 26.5 34.099609 C 27.312821 34.099609 28.180423 34.7474 28.875 35.865234 C 29.569577 36.983069 30 38.484177 30 39.599609 L 30 45.398438 C 28.397408 45.789234 26.72379 46 25 46 C 23.27621 46 21.602592 45.789234 20 45.398438 L 20 39.599609 C 20 38.508869 20.467828 37.011307 21.208984 35.888672 C 21.950141 34.766037 22.886398 34.099609 23.699219 34.099609 z M 12.308594 35.28125 C 13.174368 36.179258 14.222525 37 15.800781 37 C 16.579948 37 17.552484 37.028073 18.476562 36.945312 C 18.479848 36.945018 18.483042 36.943654 18.486328 36.943359 C 18.36458 37.293361 18.273744 37.645529 18.197266 38 L 15.400391 38 C 14.167057 38 13.29577 37.55443 12.894531 36.751953 L 12.886719 36.738281 L 12.880859 36.726562 C 12.716457 36.421191 12.500645 35.81059 12.308594 35.28125 z" fill="#7572D5"/>
</g>

<g  id = "javaScript"> 
<path d="M 5.4648438 2 A 1.0001 1.0001 0 0 0 4.46875 3.0898438 L 7.9882812 42.515625 A 1.0001 1.0001 0 0 0 8.7089844 43.388672 L 24.71875 47.960938 A 1.0001 1.0001 0 0 0 25.267578 47.960938 L 41.292969 43.388672 A 1.0001 1.0001 0 0 0 42.013672 42.515625 L 45.53125 3.0898438 A 1.0001 1.0001 0 0 0 44.535156 2 L 5.4648438 2 z M 6.5585938 4 L 43.441406 4 L 40.083984 41.654297 L 24.994141 45.960938 L 9.9199219 41.654297 L 6.5585938 4 z M 19 10 A 1.0001 1.0001 0 0 0 18 11 L 18 29.628906 L 12.267578 28.041016 A 1.0001 1.0001 0 0 0 11 29.003906 L 11 33.949219 A 1.0001 1.0001 0 0 0 11.732422 34.912109 L 22.732422 37.962891 A 1.0001 1.0001 0 0 0 24 37 L 24 11 A 1.0001 1.0001 0 0 0 23 10 L 19 10 z M 27 10 A 1.0001 1.0001 0 0 0 26 11 L 26 28 A 1.0001 1.0001 0 0 0 27.169922 28.986328 L 32.917969 27.996094 L 32.798828 29.767578 L 26.734375 31.435547 A 1.0001 1.0001 0 0 0 26 32.398438 L 26 37 A 1.0001 1.0001 0 0 0 27.265625 37.964844 L 37.265625 35.214844 A 1.0001 1.0001 0 0 0 37.996094 34.335938 L 39.050781 22.085938 A 1.0001 1.0001 0 0 0 37.914062 21.009766 L 32 21.847656 L 32 16 L 38.654297 16 A 1.0001 1.0001 0 0 0 39.650391 15.085938 L 39.996094 11.085938 A 1.0001 1.0001 0 0 0 39 10 L 27 10 z M 20 12 L 22 12 L 22 35.685547 L 13 33.189453 L 13 30.318359 L 18.732422 31.908203 A 1.0001 1.0001 0 0 0 20 30.945312 L 20 12 z M 28 12 L 37.910156 12 L 37.736328 14 L 31 14 A 1.0001 1.0001 0 0 0 30 15 L 30 23 A 1.0001 1.0001 0 0 0 31.140625 23.990234 L 36.951172 23.166016 L 36.0625 33.470703 L 28 35.6875 L 28 33.162109 L 34.015625 31.507812 A 1.0001 1.0001 0 0 0 34.748047 30.611328 L 34.998047 26.861328 A 1.0001 1.0001 0 0 0 33.830078 25.808594 L 28 26.8125 L 28 12 z" fill="#7572D5"/>
</g>
<g  id = "redux"> 
<path d="M 24 2 C 16.832 2 11 10.292328 11 20.486328 C 11 25.581015 12.484998 30.154506 14.841797 33.492188 C 14.278671 34.225786 14 35.114721 14 36 C 14 36.972222 14.318681 37.957881 15.001953 38.726562 C 15.685226 39.495244 16.75 40 18 40 C 19.25 40 20.314774 39.495244 20.998047 38.726562 C 21.681319 37.957881 22 36.972222 22 36 C 22 35.027778 21.681319 34.042119 20.998047 33.273438 C 20.314774 32.504756 19.25 32 18 32 C 17.417923 32 16.88232 32.117915 16.400391 32.3125 C 14.317709 29.317793 13 25.144037 13 20.486328 C 13 11.395328 17.935 4 24 4 C 29.419 4 33.923219 9.9093906 34.824219 17.650391 C 35.531219 17.919391 36.232734 18.222641 36.927734 18.556641 C 36.246734 9.2666406 30.71 2 24 2 z M 22 15 C 20.75 15 19.685226 15.504756 19.001953 16.273438 C 18.318681 17.042119 18 18.027778 18 19 C 18 19.972222 18.318681 20.957881 19.001953 21.726562 C 19.685226 22.495244 20.75 23 22 23 C 23.25 23 24.314774 22.495244 24.998047 21.726562 C 25.425092 21.246137 25.694239 20.67767 25.847656 20.083984 C 29.425245 19.930128 33.445887 20.987107 37.142578 23.203125 C 45.036578 27.935125 49.012859 36.186703 46.005859 41.595703 C 44.931859 43.526703 43.056938 44.897594 40.585938 45.558594 C 37.123937 46.486594 32.8715 45.916078 28.8125 44.080078 C 28.2265 44.551078 27.60675 44.996734 26.96875 45.427734 C 30.29375 47.106734 33.8125 47.996094 37.0625 47.996094 C 38.4735 47.996094 39.833516 47.830234 41.103516 47.490234 C 44.110516 46.685234 46.410906 44.982406 47.753906 42.566406 C 51.277906 36.224406 46.978922 26.769281 38.169922 21.488281 C 34.19387 19.103202 29.825568 17.936523 25.886719 18.064453 C 25.744166 17.416386 25.4608 16.794034 24.998047 16.273438 C 24.314774 15.504756 23.25 15 22 15 z M 22 17 C 22.749999 17 23.185226 17.245244 23.501953 17.601562 C 23.81868 17.957881 24 18.472222 24 19 C 24 19.527778 23.81868 20.042119 23.501953 20.398438 C 23.185226 20.754756 22.749999 21 22 21 C 21.250001 21 20.814774 20.754756 20.498047 20.398438 C 20.18132 20.042119 20 19.527778 20 19 C 20 18.472222 20.18132 17.957881 20.498047 17.601562 C 20.814774 17.245244 21.250001 17 22 17 z M 9.1621094 23.332031 C 2.1981094 28.772031 -0.89795313 36.906406 2.2480469 42.566406 C 3.5910469 44.982406 5.8914375 46.683281 8.8984375 47.488281 C 10.169438 47.828281 11.528453 47.996094 12.939453 47.996094 C 16.739453 47.996094 20.911031 46.787719 24.707031 44.511719 C 29.262758 41.780488 32.543671 37.933128 34.212891 33.978516 C 35.367764 33.923167 36.355158 33.449812 36.998047 32.726562 C 37.681319 31.957881 38 30.972222 38 30 C 38 29.027778 37.681319 28.042118 36.998047 27.273438 C 36.314774 26.504756 35.25 26 34 26 C 32.75 26 31.685226 26.504756 31.001953 27.273438 C 30.318681 28.042119 30 29.027778 30 30 C 30 30.972222 30.318681 31.957882 31.001953 32.726562 C 31.334027 33.100145 31.760237 33.407648 32.25 33.628906 C 30.681548 37.037695 27.715244 40.376565 23.677734 42.796875 C 18.927734 45.645875 13.596062 46.678594 9.4140625 45.558594 C 6.9420625 44.896594 5.0690938 43.526703 3.9960938 41.595703 C 1.4540938 37.022703 3.9149531 30.427766 9.5019531 25.634766 C 9.3569531 24.883766 9.2441094 24.114031 9.1621094 23.332031 z M 34 28 C 34.749999 28 35.185226 28.245244 35.501953 28.601562 C 35.81868 28.957881 36 29.472222 36 30 C 36 30.527778 35.81868 31.042118 35.501953 31.398438 C 35.185226 31.754756 34.749999 32 34 32 C 33.250001 32 32.814774 31.754756 32.498047 31.398438 C 32.18132 31.042119 32 30.527778 32 30 C 32 29.472222 32.18132 28.957882 32.498047 28.601562 C 32.814774 28.245244 33.250001 28 34 28 z M 18 34 C 18.749999 34 19.185226 34.245244 19.501953 34.601562 C 19.81868 34.957881 20 35.472222 20 36 C 20 36.527778 19.81868 37.042119 19.501953 37.398438 C 19.185226 37.754756 18.749999 38 18 38 C 17.250001 38 16.814774 37.754756 16.498047 37.398438 C 16.18132 37.042119 16 36.527778 16 36 C 16 35.472222 16.18132 34.957881 16.498047 34.601562 C 16.814774 34.245244 17.250001 34 18 34 z" fill="#7572D5"/>
</g>
<g  id = "nodeJS"> 
<path style=" stroke:none;fill-rule:nonzero;fill:#7572D5;fill-opacity:1;" d="M 25.003906 58.503906 C 24.242188 58.503906 23.496094 58.304688 22.835938 57.929688 L 15.941406 53.886719 C 14.914062 53.316406 15.414062 53.117188 15.753906 52.996094 C 16.847656 52.664062 17.894531 52.195312 18.871094 51.601562 C 19.039062 51.527344 19.234375 51.539062 19.386719 51.640625 L 24.683594 54.757812 C 24.882812 54.863281 25.125 54.863281 25.324219 54.757812 L 45.984375 42.949219 C 46.179688 42.832031 46.300781 42.621094 46.300781 42.394531 L 46.300781 18.777344 C 46.300781 18.546875 46.179688 18.332031 45.980469 18.214844 L 25.320312 6.417969 C 25.121094 6.304688 24.878906 6.304688 24.683594 6.417969 L 4.035156 18.21875 C 3.835938 18.335938 3.710938 18.546875 3.707031 18.777344 L 3.707031 42.386719 C 3.710938 42.613281 3.832031 42.820312 4.03125 42.933594 L 9.699219 46.167969 C 12.769531 47.6875 14.652344 45.898438 14.652344 44.101562 L 14.652344 20.792969 C 14.652344 20.460938 14.921875 20.195312 15.253906 20.195312 L 17.871094 20.195312 C 18.207031 20.195312 18.476562 20.460938 18.476562 20.792969 L 18.476562 44.101562 C 18.476562 48.160156 16.246094 50.480469 12.359375 50.480469 C 10.683594 50.511719 9.03125 50.066406 7.601562 49.203125 L 2.171875 46.117188 C 0.828125 45.34375 0.00390625 43.921875 0.00390625 42.386719 L 0.00390625 18.777344 C 0 17.238281 0.824219 15.8125 2.171875 15.039062 L 22.832031 3.230469 C 24.183594 2.496094 25.820312 2.496094 27.171875 3.230469 L 47.832031 15.039062 C 49.171875 15.8125 50 17.230469 50 18.769531 L 50 42.386719 C 49.996094 43.921875 49.171875 45.34375 47.832031 46.117188 L 27.171875 57.929688 C 26.511719 58.304688 25.765625 58.503906 25.003906 58.503906 Z M 25.003906 58.503906 "/>
<path style=" stroke:none;fill-rule:nonzero;fill:#7572D5;fill-opacity:1;" d="M 21.082031 34.484375 C 21.082031 34.152344 21.355469 33.886719 21.6875 33.886719 L 24.359375 33.886719 C 24.65625 33.886719 24.90625 34.097656 24.953125 34.386719 C 25.355469 37.082031 26.566406 38.4375 32.027344 38.4375 C 36.378906 38.4375 38.234375 37.464844 38.234375 35.175781 C 38.234375 33.859375 37.707031 32.878906 30.945312 32.222656 C 25.289062 31.667969 21.792969 30.429688 21.792969 25.957031 C 21.792969 21.828125 25.308594 19.367188 31.199219 19.367188 C 37.816406 19.367188 41.09375 21.640625 41.507812 26.523438 C 41.519531 26.6875 41.464844 26.847656 41.351562 26.972656 C 41.238281 27.09375 41.078125 27.164062 40.914062 27.164062 L 38.222656 27.164062 C 37.945312 27.160156 37.707031 26.972656 37.644531 26.703125 C 37 23.871094 35.429688 22.964844 31.199219 22.964844 C 26.449219 22.964844 25.894531 24.605469 25.894531 25.832031 C 25.894531 27.320312 26.546875 27.753906 32.964844 28.59375 C 39.3125 29.425781 42.328125 30.601562 42.328125 35.019531 C 42.328125 39.476562 38.574219 42.027344 32.027344 42.027344 C 22.976562 42.039062 21.082031 37.929688 21.082031 34.484375 Z M 21.082031 34.484375 "/>
</g>
<g  id = "storybook"> 
<path style=" stroke:none;fill-rule:nonzero;fill:#7572D5;fill-opacity:1;" d="M 41.929688 0.789062 L 39.230469 0.957031 L 39.441406 6.570312 C 39.453125 6.882812 39.09375 7.0625 38.847656 6.871094 L 37.042969 5.445312 L 34.898438 7.070312 C 34.785156 7.15625 34.632812 7.167969 34.507812 7.101562 C 34.382812 7.039062 34.308594 6.902344 34.3125 6.761719 L 34.554688 1.246094 L 7.765625 2.921875 C 6.4375 3.007812 5.421875 4.128906 5.46875 5.457031 L 6.976562 45.625 C 7.023438 46.898438 8.042969 47.921875 9.3125 47.980469 L 41.972656 49.449219 C 42.640625 49.476562 43.292969 49.230469 43.773438 48.769531 C 44.257812 48.308594 44.53125 47.671875 44.53125 47.003906 L 44.53125 3.230469 C 44.53125 2.550781 44.253906 1.90625 43.757812 1.445312 C 43.269531 0.984375 42.605469 0.746094 41.929688 0.789062 M 25.734375 9.0625 C 32.109375 9.0625 35.585938 12.46875 35.585938 18.953125 C 34.726562 19.621094 28.3125 20.078125 28.3125 19.125 C 28.449219 15.492188 26.820312 15.335938 25.917969 15.335938 C 25.058594 15.335938 23.613281 15.589844 23.613281 17.539062 C 23.613281 22.339844 35.992188 22.078125 35.992188 31.765625 C 35.992188 37.214844 31.5625 40.226562 25.917969 40.226562 C 20.089844 40.226562 14.996094 37.867188 15.574219 29.695312 C 15.800781 28.730469 23.207031 28.960938 23.207031 29.695312 C 23.117188 33.066406 23.886719 34.058594 25.828125 34.058594 C 27.320312 34.058594 27.996094 33.238281 27.996094 31.855469 C 27.996094 26.921875 15.800781 26.75 15.800781 17.710938 C 15.800781 12.519531 19.367188 9.0625 25.738281 9.0625 Z M 25.734375 9.0625 "/>
</g>
<g  id = "unitTest"> 
<path style=" stroke:none;fill-rule:nonzero;fill:#7572D5;fill-opacity:1;" d="M 46.355469 24.625 C 46.351562 21.675781 44.359375 19.101562 41.507812 18.355469 L 47.730469 0 L 16.882812 0 L 23.125 18.414062 C 20.355469 19.21875 18.453125 21.753906 18.449219 24.636719 C 18.449219 26.808594 19.535156 28.734375 21.183594 29.921875 C 20.519531 30.859375 19.765625 31.726562 18.925781 32.511719 C 17.386719 33.980469 15.585938 35.144531 13.613281 35.945312 C 11.878906 34.769531 11.125 32.703125 11.804688 30.847656 C 14.859375 29.898438 16.761719 26.863281 16.289062 23.703125 C 15.816406 20.539062 13.105469 18.195312 9.910156 18.179688 C 6.328125 18.1875 3.425781 21.085938 3.421875 24.667969 C 3.421875 26.433594 4.144531 28.054688 5.304688 29.210938 C 5.203125 29.414062 5.101562 29.617188 5 29.835938 C 4.03125 31.832031 2.929688 34.089844 2.511719 36.625 C 1.671875 41.691406 3.046875 45.757812 6.363281 48.058594 C 8.15625 49.328125 10.300781 50.003906 12.496094 50 C 16.304688 50 20.167969 48.089844 23.902344 46.234375 C 26.570312 44.917969 29.320312 43.542969 32.023438 42.878906 C 33.023438 42.632812 34.066406 42.488281 35.167969 42.328125 C 37.394531 42.007812 39.699219 41.675781 41.765625 40.472656 C 44.15625 39.101562 45.820312 36.746094 46.3125 34.035156 C 46.675781 31.960938 46.3125 29.878906 45.386719 28.054688 C 46.007812 27.054688 46.355469 25.882812 46.355469 24.621094 Z M 43.535156 24.625 C 43.535156 26.636719 41.898438 28.269531 39.886719 28.269531 C 38.335938 28.265625 36.957031 27.28125 36.449219 25.816406 C 35.9375 24.351562 36.410156 22.722656 37.628906 21.757812 L 37.640625 21.742188 C 37.757812 21.65625 37.886719 21.570312 38.015625 21.484375 C 38.015625 21.484375 38.035156 21.484375 38.035156 21.46875 C 38.089844 21.441406 38.148438 21.394531 38.207031 21.363281 C 38.222656 21.363281 38.234375 21.351562 38.25 21.351562 C 38.308594 21.324219 38.382812 21.292969 38.453125 21.265625 C 38.523438 21.234375 38.597656 21.207031 38.65625 21.179688 C 38.671875 21.179688 38.683594 21.164062 38.699219 21.164062 C 38.757812 21.148438 38.816406 21.121094 38.871094 21.105469 C 38.886719 21.105469 38.914062 21.089844 38.929688 21.089844 C 39.003906 21.078125 39.058594 21.0625 39.132812 21.050781 L 39.148438 21.050781 L 39.363281 21.003906 C 39.378906 21.003906 39.40625 21.003906 39.421875 20.988281 C 39.480469 20.988281 39.539062 20.976562 39.597656 20.976562 L 39.667969 20.976562 C 39.742188 20.976562 39.816406 20.960938 39.898438 20.960938 L 40.085938 20.960938 C 40.144531 20.960938 40.191406 20.960938 40.246094 20.976562 L 40.277344 20.976562 C 40.390625 20.988281 40.507812 21.003906 40.625 21.035156 C 42.320312 21.394531 43.53125 22.890625 43.535156 24.621094 Z M 20.921875 2.894531 L 43.695312 2.894531 L 38.464844 18.3125 C 38.25 18.355469 38.035156 18.425781 37.816406 18.5 L 32.316406 7.28125 L 26.800781 18.425781 C 26.582031 18.355469 26.351562 18.3125 26.117188 18.269531 Z M 31.273438 23.363281 C 31.007812 22.027344 30.320312 20.8125 29.320312 19.890625 L 32.316406 13.839844 L 35.339844 20.019531 C 34.445312 20.917969 33.792969 22.0625 33.53125 23.363281 L 31.269531 23.363281 Z M 24.019531 21.078125 C 24.089844 21.0625 24.148438 21.046875 24.222656 21.035156 L 24.265625 21.035156 C 24.324219 21.019531 24.382812 21.019531 24.441406 21.003906 L 24.496094 21.003906 C 24.554688 21.003906 24.601562 20.988281 24.65625 20.988281 L 25.222656 20.988281 C 25.277344 20.988281 25.324219 21.003906 25.367188 21.003906 C 25.394531 21.003906 25.410156 21.003906 25.441406 21.019531 C 25.496094 21.035156 25.539062 21.035156 25.597656 21.046875 C 25.613281 21.046875 25.628906 21.046875 25.65625 21.0625 L 25.859375 21.105469 L 25.871094 21.105469 C 25.929688 21.121094 25.988281 21.136719 26.046875 21.164062 C 26.058594 21.164062 26.074219 21.179688 26.105469 21.179688 C 26.148438 21.195312 26.207031 21.207031 26.25 21.234375 C 26.265625 21.234375 26.277344 21.25 26.292969 21.25 C 26.351562 21.277344 26.410156 21.292969 26.464844 21.324219 L 26.480469 21.324219 C 26.546875 21.347656 26.609375 21.382812 26.667969 21.425781 L 26.683594 21.425781 C 26.742188 21.453125 26.800781 21.496094 26.859375 21.523438 C 26.871094 21.523438 26.871094 21.539062 26.886719 21.539062 C 26.945312 21.570312 26.988281 21.613281 27.046875 21.640625 L 27.058594 21.65625 C 27.234375 21.785156 27.394531 21.929688 27.550781 22.074219 L 27.566406 22.089844 C 28.210938 22.769531 28.570312 23.671875 28.566406 24.609375 C 28.5 26.574219 26.886719 28.136719 24.917969 28.136719 C 22.949219 28.136719 21.335938 26.574219 21.269531 24.609375 C 21.265625 22.9375 22.402344 21.480469 24.019531 21.078125 Z M 9.773438 20.976562 C 11.789062 20.976562 13.421875 22.613281 13.421875 24.621094 C 13.421875 26.632812 11.789062 28.269531 9.777344 28.269531 C 7.765625 28.269531 6.128906 26.636719 6.128906 24.625 C 6.128906 22.613281 7.765625 20.976562 9.773438 20.976562 Z M 43.449219 33.527344 C 43.113281 35.402344 41.960938 37.03125 40.304688 37.972656 C 38.726562 38.882812 36.789062 39.171875 34.746094 39.460938 C 33.597656 39.609375 32.457031 39.8125 31.328125 40.070312 C 28.320312 40.808594 25.425781 42.257812 22.617188 43.644531 C 19.023438 45.425781 15.636719 47.105469 12.496094 47.105469 C 10.886719 47.113281 9.316406 46.613281 8.011719 45.671875 C 4.824219 43.472656 4.984375 39.347656 5.359375 37.085938 C 5.707031 34.972656 6.675781 32.992188 7.605469 31.09375 C 7.664062 30.980469 7.707031 30.878906 7.765625 30.761719 C 8.082031 30.878906 8.414062 30.964844 8.761719 31.023438 C 8.210938 34.089844 9.773438 37.261719 12.816406 38.824219 L 13.367188 39.113281 L 13.957031 38.898438 C 16.492188 38 18.835938 36.539062 20.910156 34.582031 C 22.050781 33.515625 23.0625 32.316406 23.917969 31.007812 C 24.253906 31.066406 24.585938 31.078125 24.917969 31.078125 C 27.867188 31.074219 30.4375 29.082031 31.183594 26.230469 L 33.617188 26.230469 C 34.359375 29.085938 36.9375 31.078125 39.886719 31.078125 C 41.085938 31.078125 42.199219 30.746094 43.160156 30.183594 C 43.535156 31.265625 43.648438 32.398438 43.449219 33.527344 Z M 43.449219 33.527344 "/>
</g>
<g  id = "figma"> 
<path style=" stroke:none;fill-rule:nonzero;fill:#7572D5;fill-opacity:1;" d="M 23.914062 0 L 16.304688 0 C 12.101562 0 8.695312 3.40625 8.695312 7.609375 C 8.695312 11.8125 12.101562 15.21875 16.304688 15.21875 L 23.914062 15.21875 Z M 23.914062 0 "/>
<path style=" stroke:none;fill-rule:nonzero;fill:#7572D5;fill-opacity:1;" d="M 26.085938 0 L 33.695312 0 C 37.898438 0 41.304688 3.40625 41.304688 7.609375 C 41.304688 11.8125 37.898438 15.21875 33.695312 15.21875 L 26.085938 15.21875 Z M 26.085938 0 "/>
<path style=" stroke:none;fill-rule:nonzero;fill:#7572D5;fill-opacity:1;" d="M 23.914062 17.390625 L 16.304688 17.390625 C 12.101562 17.390625 8.695312 20.796875 8.695312 25 C 8.695312 29.203125 12.101562 32.609375 16.304688 32.609375 L 23.914062 32.609375 Z M 23.914062 17.390625 "/>
<path style=" stroke:none;fill-rule:nonzero;fill:#7572D5;fill-opacity:1;" d="M 23.914062 34.78125 L 16.304688 34.78125 C 12.101562 34.78125 8.695312 38.1875 8.695312 42.390625 C 8.695312 46.59375 12.101562 50 16.304688 50 C 20.507812 50 23.914062 46.59375 23.914062 42.390625 Z M 23.914062 34.78125 "/>
<path style=" stroke:none;fill-rule:nonzero;fill:#7572D5;fill-opacity:1;" d="M 33.695312 32.609375 C 37.898438 32.609375 41.304688 29.203125 41.304688 25 C 41.304688 20.796875 37.898438 17.390625 33.695312 17.390625 C 29.492188 17.390625 26.085938 20.796875 26.085938 25 C 26.085938 29.203125 29.492188 32.609375 33.695312 32.609375 Z M 33.695312 32.609375 "/>
</g>
<g  id = "MaterialUI"> 
<path style=" stroke:none;fill-rule:nonzero;fill:#7572D5;fill-opacity:1;" d="M 3.050781 6.902344 L 3.050781 24.15625 L 5.992188 22.484375 L 5.992188 8.570312 Z M 3.050781 6.902344 " fill="#7572D5"/>
<path style=" stroke:none;fill-rule:nonzero;fill:#7572D5;fill-opacity:1;" d="M 0.109375 22.484375 L 0.109375 1.707031 L 17.570312 11.726562 L 17.570312 15.25 L 3.050781 6.902344 L 3.050781 24.15625 Z M 0.109375 22.484375 "/>
<path style=" stroke:none;fill-rule:nonzero;fill:#7572D5;fill-opacity:1;" d="M 35.398438 1.707031 L 35.398438 22.484375 L 23.636719 29.164062 L 20.695312 27.308594 L 32.460938 20.628906 L 32.460938 6.714844 L 17.570312 15.25 L 17.570312 11.726562 Z M 35.398438 1.707031 "/>
<path style=" stroke:none;fill-rule:nonzero;fill:#7572D5;fill-opacity:1;" d="M 32.460938 0.0351562 L 17.753906 8.386719 L 3.050781 0.0351562 L 0.109375 1.707031 L 17.570312 11.726562 L 35.398438 1.707031 L 32.457031 0.0390625 Z M 32.460938 0.0351562 "/>
<path style=" stroke:none;fill-rule:nonzero;fill:#7572D5;fill-opacity:1;" d="M 29.519531 8.386719 L 29.519531 18.960938 L 32.460938 20.628906 L 32.460938 6.714844 Z M 29.519531 8.386719 "/>
<path style=" stroke:none;fill-rule:nonzero;fill:#7572D5;fill-opacity:1;" d="M 14.8125 27.308594 L 29.519531 18.960938 L 32.460938 20.628906 L 20.695312 27.308594 L 32.277344 33.988281 L 44.039062 27.308594 L 46.980469 28.976562 L 32.277344 37.328125 Z M 14.8125 27.308594 "/>
<path style=" stroke:none;fill-rule:nonzero;fill:#7572D5;fill-opacity:1;" d="M 14.8125 27.308594 L 14.8125 30.832031 L 32.277344 40.851562 L 32.277344 37.328125 Z M 46.980469 28.976562 L 46.980469 18.589844 L 44.039062 16.917969 L 44.039062 27.308594 Z M 46.980469 28.976562 "/>
<path style=" stroke:none;fill-rule:nonzero;fill:#7572D5;fill-opacity:1;" d="M 32.273438 37.328125 L 46.980469 28.976562 L 46.980469 18.589844 L 49.921875 16.917969 L 49.921875 30.832031 L 32.277344 40.851562 L 32.277344 37.328125 Z M 32.273438 37.328125 "/>
<path style=" stroke:none;fill-rule:nonzero;fill:#7572D5;fill-opacity:1;" d="M 49.921875 16.917969 L 46.980469 18.589844 L 44.039062 16.917969 L 46.980469 15.25 Z M 49.921875 16.917969 "/>
<path style=" stroke:none;fill-rule:nonzero;fill:#7572D5;fill-opacity:1;" d="M 46.980469 15.25 L 46.980469 11.726562 L 49.921875 10.054688 L 49.921875 13.578125 Z M 46.980469 15.25 "/>
<path style=" stroke:none;fill-rule:nonzero;fill:#7572D5;fill-opacity:1;" d="M 46.980469 11.726562 L 46.980469 15.25 L 44.039062 13.582031 L 44.039062 10.054688 Z M 46.980469 11.726562 "/>
<path style=" stroke:none;fill-rule:nonzero;fill:#7572D5;fill-opacity:1;" d="M 49.921875 10.054688 L 46.980469 11.726562 L 44.039062 10.054688 L 46.980469 8.386719 Z M 49.921875 10.054688 "/>
</g>
<g id = "instagram">
<path d="M15.6516 2.09998H5.34844C3.55687 2.09998 2.1 3.55628 2.1 5.34715V8.77799V15.6528C2.1 17.4437 3.55687 18.9 5.34844 18.9H15.6516C17.4431 18.9 18.9 17.4437 18.9 15.6528V8.77143V5.34058C18.8934 3.55628 17.4366 2.09998 15.6516 2.09998ZM16.5834 4.03516H16.9575V4.40251V6.88217L14.1159 6.88873L14.1094 4.04172L16.5834 4.03516ZM8.09812 8.77143C8.63625 8.03016 9.50906 7.53816 10.4934 7.53816C11.4778 7.53816 12.3506 8.0236 12.8887 8.77143C13.2431 9.25687 13.4466 9.85382 13.4466 10.4967C13.4466 12.1236 12.1209 13.4552 10.4869 13.4552C8.85281 13.4552 7.54031 12.1236 7.54031 10.4967C7.54031 9.85382 7.75031 9.25687 8.09812 8.77143ZM17.2594 15.6462C17.2594 16.5318 16.5375 17.2534 15.6516 17.2534H5.34844C4.4625 17.2534 3.74062 16.5318 3.74062 15.6462V8.77143H6.2475C6.03094 9.30279 5.90625 9.88662 5.90625 10.4967C5.90625 13.0288 7.96687 15.0887 10.5 15.0887C13.0331 15.0887 15.0937 13.0288 15.0937 10.4967C15.0937 9.88662 14.9691 9.30279 14.7525 8.77143H17.2594V15.6462Z" fill="currentColor"/>
</g>
<g id = "telegram">
<path d="M18.9057 4.76449L16.3705 16.7208C16.1791 17.5644 15.6804 17.7745 14.9717 17.3772L11.1085 14.5305L9.24472 16.3235C9.0383 16.5299 8.86608 16.7022 8.46824 16.7022L8.74607 12.7681L15.9054 6.29885C16.2169 6.02162 15.8376 5.86741 15.4218 6.14524L6.57084 11.7186L2.76043 10.5257C1.93174 10.2671 1.91674 9.69701 2.93325 9.29917L17.837 3.55716C18.5271 3.29854 19.1308 3.71018 18.9057 4.76449Z" fill="currentColor"/>
</g>
<g id = "vk">
<path d="M18.1696 13.9941C17.8038 13.5391 17.3881 13.1314 16.9861 12.737C16.8432 12.5968 16.6954 12.4518 16.5529 12.3076C16.1439 11.8932 16.129 11.7375 16.4529 11.2668C16.6769 10.9424 16.9145 10.6175 17.1442 10.3033C17.3526 10.0183 17.568 9.72351 17.7746 9.42777L17.817 9.36697C18.2117 8.80103 18.6199 8.21583 18.8372 7.50988C18.8936 7.32363 18.9528 7.04955 18.8174 6.82036C18.682 6.59137 18.4195 6.52151 18.2337 6.48888C18.1418 6.47273 18.0506 6.47053 17.9659 6.47053L15.3809 6.46861L15.3595 6.46842C14.9687 6.46842 14.7053 6.65927 14.5544 7.05194C14.4103 7.42713 14.252 7.82665 14.0714 8.20653C13.7119 8.96298 13.2554 9.83425 12.5948 10.5609L12.5669 10.5918C12.4889 10.6787 12.4005 10.777 12.3359 10.777C12.326 10.777 12.3152 10.7751 12.303 10.7711C12.1662 10.7159 12.0744 10.3726 12.0785 10.213C12.0786 10.2108 12.0786 10.2086 12.0786 10.2064L12.0768 7.1105C12.0768 7.09976 12.0761 7.08913 12.0747 7.07849C12.009 6.57522 11.8633 6.26195 11.3129 6.15026C11.2983 6.14724 11.2834 6.14575 11.2685 6.14575H8.5806C8.14268 6.14575 7.90138 6.33018 7.67456 6.60623C7.61334 6.68002 7.48589 6.83364 7.54906 7.01998C7.61315 7.20911 7.8212 7.24955 7.88894 7.26268C8.22522 7.32899 8.41477 7.54213 8.46846 7.91453C8.56219 8.56121 8.57371 9.25144 8.50471 10.0868C8.48547 10.3189 8.44742 10.4982 8.38471 10.6514C8.37015 10.6872 8.31849 10.8038 8.26582 10.8039C8.24908 10.8039 8.20067 10.7971 8.11248 10.7341C7.90397 10.5861 7.75142 10.3749 7.57357 10.114C6.96853 9.22796 6.46074 8.25191 6.02097 7.12938C5.85787 6.71615 5.55327 6.48481 5.16289 6.478C4.73395 6.47125 4.34504 6.46799 3.97413 6.46799C3.56886 6.46799 3.19314 6.47187 2.82625 6.47978C2.51217 6.48553 2.29492 6.58308 2.18061 6.76996C2.06611 6.95697 2.07356 7.20264 2.20276 7.50001C3.23702 9.88254 4.17478 11.6149 5.24345 13.1171C5.99225 14.1683 6.74333 14.8959 7.60686 15.4068C8.51664 15.9461 9.5362 16.2083 10.7237 16.2083C10.8583 16.2083 10.9975 16.2048 11.1379 16.198C11.8279 16.1632 12.0839 15.9044 12.1163 15.2082C12.1317 14.8525 12.1692 14.4793 12.338 14.1611C12.4445 13.9606 12.5439 13.9606 12.5765 13.9606C12.6394 13.9606 12.7174 13.9906 12.8011 14.0468C12.9513 14.1484 13.0801 14.2845 13.1857 14.4034C13.285 14.5163 13.3833 14.6304 13.4817 14.7446C13.6939 14.9909 13.9134 15.2456 14.1427 15.4871C14.6445 16.0162 15.1973 16.2488 15.8323 16.1983H18.2023C18.2073 16.1983 18.2124 16.1981 18.2175 16.1978C18.4536 16.1817 18.6582 16.0459 18.7786 15.8254C18.9279 15.5522 18.9249 15.2037 18.7706 14.893C18.5956 14.5415 18.3685 14.2413 18.1696 13.9941Z" fill="currentColor"/>
</g>
<g id ="linkedin">
<path d="M5.80637 7.88635H2.53296V18.3626H5.80637V7.88635Z" fill="currentColor"/>
<path d="M4.10079 2.94019C2.89376 2.94019 2.10001 3.72082 2.10001 4.75729C2.10001 5.77408 2.86752 6.57439 4.05487 6.57439H4.08111C5.31437 6.57439 6.08189 5.76752 6.07533 4.75729C6.04909 3.72082 5.30781 2.94019 4.10079 2.94019Z" fill="currentColor"/>
<path d="M14.7476 7.78796C12.8714 7.78796 11.6972 8.81131 11.4807 9.53291V7.88636H7.8006C7.84652 8.75883 7.8006 18.3626 7.8006 18.3626H11.4807V12.7014C11.4807 12.3799 11.4676 12.065 11.5594 11.842C11.8087 11.2123 12.3532 10.5563 13.3306 10.5563C14.6098 10.5563 15.1871 11.5271 15.1871 12.9441V18.3626H18.9V12.5374C18.9 9.29675 17.0764 7.78796 14.7476 7.78796Z" fill="currentColor"/>
</g>
<g id = "arrowGoTop">
<path d="M6.80722 4.2806V15H9.19728V4.2806L14.3134 9.08118L16 7.5L8 0L0 7.5L1.6866 9.0818L6.80722 4.2806Z" fill="white"/>
</g>
<g id = "testimony">
<path d="M14.5417 20.8333C13.0771 20.8333 12.6312 20.9042 12.1875 20.9688C12.3312 20.4854 12.4792 19.9938 12.7167 19.5521C12.9542 18.9104 13.325 18.3542 13.6937 17.7938C14.0021 17.1875 14.5458 16.7771 14.9458 16.2583C15.3646 15.7542 15.9354 15.4188 16.3875 15C16.8312 14.5625 17.4125 14.3438 17.875 14.0354C18.3583 13.7583 18.7792 13.4521 19.2292 13.3063L20.3521 12.8438L21.3396 12.4333L20.3292 8.39584L19.0854 8.69584C18.6875 8.79584 18.2021 8.9125 17.65 9.05209C17.0854 9.15625 16.4833 9.44167 15.8125 9.70209C15.15 9.99792 14.3833 10.1979 13.6708 10.6729C12.9542 11.1271 12.1271 11.5063 11.3979 12.1146C10.6917 12.7417 9.83958 13.2854 9.21041 14.0833C8.52291 14.8292 7.84375 15.6125 7.31666 16.5042C6.70625 17.3542 6.29166 18.2875 5.85416 19.2104C5.45833 20.1333 5.13958 21.0771 4.87916 21.9938C4.38541 23.8313 4.16458 25.5771 4.07916 27.0708C4.00833 28.5667 4.05 29.8104 4.1375 30.7104C4.16875 31.1354 4.22708 31.5479 4.26875 31.8333L4.32083 32.1833L4.375 32.1708C4.74554 33.9017 5.59855 35.4924 6.83534 36.7587C8.07213 38.0251 9.64217 38.9154 11.3638 39.3267C13.0855 39.738 14.8884 39.6535 16.5641 39.083C18.2397 38.5124 19.7196 37.4792 20.8325 36.1027C21.9454 34.7262 22.6459 33.0628 22.853 31.3048C23.06 29.5468 22.7651 27.7662 22.0024 26.1688C21.2396 24.5714 20.0403 23.2226 18.543 22.2784C17.0458 21.3342 15.3118 20.8332 13.5417 20.8333ZM36.4583 20.8333C35.9937 20.8333 35.5479 20.9042 35.1042 20.9688C35.2479 20.4854 35.3958 19.9938 35.6333 19.5521C35.8708 18.9104 36.2417 18.3542 36.6104 17.7938C36.9188 17.1875 37.4625 16.7771 37.8625 16.2583C38.2812 15.7542 38.8521 15.4188 39.3042 15C39.7479 14.5625 40.3292 14.3438 40.7917 14.0354C41.275 13.7583 41.6958 13.4521 42.1458 13.3063L43.2687 12.8438L44.2562 12.4333L43.2458 8.39584L42.0021 8.69584C41.6042 8.79584 41.1187 8.9125 40.5667 9.05209C40.0021 9.15625 39.4 9.44167 38.7292 9.70209C38.0688 10 37.3 10.1979 36.5875 10.675C35.8708 11.1292 35.0438 11.5083 34.3146 12.1167C33.6083 12.7438 32.7562 13.2875 32.1271 14.0833C31.4396 14.8292 30.7604 15.6125 30.2333 16.5042C29.6229 17.3542 29.2083 18.2875 28.7708 19.2104C28.375 20.1333 28.0562 21.0771 27.7958 21.9938C27.3021 23.8313 27.0812 25.5771 26.9958 27.0708C26.925 28.5667 26.9667 29.8104 27.0542 30.7104C27.0854 31.1354 27.1437 31.5479 27.1854 31.8333L27.2375 32.1833L27.2917 32.1708C27.6622 33.9017 28.5152 35.4924 29.752 36.7587C30.9888 38.0251 32.5588 38.9154 34.2805 39.3267C36.0022 39.738 37.8051 39.6535 39.4807 39.083C41.1564 38.5124 42.6363 37.4792 43.7492 36.1027C44.8621 34.7262 45.5626 33.0628 45.7696 31.3048C45.9766 29.5468 45.6817 27.7662 44.919 26.1688C44.1563 24.5714 42.957 23.2226 41.4597 22.2784C39.9624 21.3342 38.2284 20.8332 36.4583 20.8333Z" fill="#7572D5"/>
</g>
</svg>
